<svg xmlns="http://www.w3.org/2000/svg" viewBox="0 0 141.7 141.7"><defs><style>.a{fill:#455790;}.b{fill:#7bc084;}</style></defs><rect class="a" width="141.7" height="141.73"/><path class="b" d="M5.7,55.8c0-21.1,16.3-39,41.8-39a38.7,38.7,0,0,1,23.6,7.5c3.1,2.2,3.3,5.2.9,8.1l-3.4,4.1c-2.4,3-5,3-8.2.8A25.3,25.3,0,0,0,47.5,34C34,34,25.6,43.7,25.6,55.8S34,77.6,47.5,77.6a25.7,25.7,0,0,0,12.9-3.4c3.2-2.1,5.8-2.1,8.2.8L72,79.1c2.4,2.9,2.4,5.7-.4,7.8a39.5,39.5,0,0,1-24.1,7.9C22,94.8,5.7,76.8,5.7,55.8Z"/><path class="b" d="M74.7,103.7c-1.4-3.7.5-6.3,4.2-7.1l5.4-1.3c3.3-.8,5.2.6,7.1,3.8S98,105,103.8,105s10.5-2.5,10.5-6.9c0-2.8-1.8-5.5-7.4-7.4l-9.2-3.3c-6.4-2.1-21-7.9-21.2-21.7s12.1-23.2,27.8-23.2c11.7,0,20,4.9,24.5,13.5,1.9,3.5.2,6.3-3.5,7.4l-5,1.4c-3.4,1-5.3-.3-7.6-3.1s-4.3-3.8-8.1-3.8S96,60.1,96,64.2c0,2.4,1.4,4.8,7.1,6.9l9.1,3.2c15.7,5.4,21.2,13,21.4,23,0,15.5-13.5,23.1-29.8,23.1C89.4,120.4,78.9,114.2,74.7,103.7Z"/></svg>