<svg xmlns="http://www.w3.org/2000/svg" viewBox="0 0 2967.1 1344.9"><defs><style>.a{isolation:isolate;}.b{fill:#f9e3d6;}.c{fill:#408a37;}.d{fill:#5dcc52;}.e{fill:#489d3f;}.f{fill:#f48005;}.g{fill:#f4922c;}.h{fill:#53b84a;}.i{fill:#7a4003;}.j{fill:#ffaa52;}.k{fill:#fff;}.l{fill:#fede5e;}.m{fill:#feeca5;}.n{fill:#f5b422;}.o{fill:#855143;}.p{fill:#965f4d;}.q{fill:#e08c72;}.r{fill:#ba664d;}.s{fill:#fff5d6;}.t{fill:#ffb697;}.u{fill:#276146;}.v{mix-blend-mode:multiply;}.w{fill:#d1d3d4;}.x{fill:#2b6b4d;}.y{fill:#21523b;}.z{fill:#e3e4e6;}.aa{fill:#33805c;}.ab{fill:#296649;}.ac{mix-blend-mode:screen;}.ad{fill:#18181a;}.ae{fill:#0a0a0a;}.af{fill:#f1f2f2;}.ag{fill:#b3cdf8;}.ah{fill:#cbdcf8;}.ai{fill:#9cb3d9;}.aj{fill:#ebf3ff;}.ak{fill:#c1d6f8;}.al{fill:#e8daae;}.am{fill:#cfbf87;}.an{fill:#b7c500;}.ao{fill:#a3b000;}.ap{fill:#c9d900;}.aq{fill:#ffab4a;}.ar{fill:#eb9d44;}.as{fill:#ffb763;}.at{fill:#ff857d;}.au{fill:#ff9d96;}.av{fill:#e67870;}.aw{fill:#79c384;}.ax{fill:#d3d3ef;}.ay{fill:#d84178;}.az{fill:#44578f;}.ba{fill:#7272b7;}.bb{fill:#7f7fc6;}.bc{fill:#636b00;}.bd{fill:#555c00;}.be{fill:#768000;}.bf{fill:#697000;}.bg{fill:#ed5234;}.bh{fill:#de4d31;}.bi{fill:#ff9580;}.bj{fill:#e9ac8a;}.bk{fill:#0089c5;}.bl{fill:#0e2e47;}.bm{fill:#123d5e;}.bn{fill:#e89680;}.bo{fill:#97bad5;}.bp{opacity:0.8;}</style></defs><g class="a"><path class="b" d="M133.4,1344.9H2833.8c73.6,0,133.3-67.6,133.3-151.1h0c0-83.4-59.7-151.1-133.3-151.1H2275.1c-53.4,0-96.7-49-96.7-109.6h0c0-60.5,43.3-109.6,96.7-109.6h20.3c51.7,0,93.7-47.5,93.7-106.1v-9.7c0-58.6-42-106.1-93.7-106.1H1827.1c-112.9,0-204.3-103.7-204.3-231.5h-.7c0-167.6-72.4-184.8-162.4-184.8h13.7c-56.8,0-102.8,52.2-102.8,116.5h0c0,81.4-57.2,147.4-129.1,147.4h-91.9c-67,0-121.4,61.6-121.4,137.5h0c0,75.9-54.3,137.5-121.3,137.5H414.5c-94.1,0-170.4,86.4-170.4,193h0c0,69.4-49.6,125.5-110.7,125.5h0C59.7,1042.7,0,1110.4,0,1193.8H0C0,1277.3,59.7,1344.9,133.4,1344.9Z"/><path class="c" d="M955.7,446.5s-9.8-30.9,6.1-64.4c0,0-8,8.5-10.2,7.3s1.6-6.5,1.6-6.5-6.7,7.8-8.9,4.9,5.8-9.6,5.8-9.6-14,6-13.4,1.8,6-5.9,6-5.9-7.6.6-5.4-3.1,7.7-1.3,7.7-1.3-10.5-7.4-5.1-9.8,8.2,1,8.2,1-2.4-5.9,1.6-7.4,6.9,6.4,6.9,6.4-.3-10.2,5.6-11.1,1.8,7.3,1.8,7.3,2.2-6.7,7.9-6.8.9,8.1.9,8.1l7.6-.9,10,8.3-8.5,20L970.2,400l-7.3,17.4-4.6,24.7-1.7,6.4Z"/><path class="d" d="M959.7,447.3l-1.4-5.2s-.7-23.1,9.6-45,18-29.4,18-29.4-7.4,5-9.4,1.6,4.2-6.1,4.2-6.1-10.1,4.2-9.6,0,5.2-6.2,5.2-6.2-9.1,3.5-8.1-1.8S981,349,981,349s-12.2-2.3-10.3-6.5,7.5.8,7.5.8-2.1-9.6,1.6-10.1,7.1,5.7,7.1,5.7-3.3-10.9,1.7-11.9,6.8,7.2,6.8,7.2-1.6-12.1,2.4-12.7,4.2,13.8,4.2,13.8,5.4-14.5,10.8-13.8.2,8.8.2,8.8,10.1-8.4,12.4-6.5-5.4,9-5.4,9,7.7-3.1,10.8,1.8-9.5,9.4-9.5,9.4,9.7-3.4,9.8,1.1-9.7,5.4-9.7,5.4,10.9-3.1,11.2,2.4a8.9,8.9,0,0,1-3.9,8.1s6.8-6.6,11.2-5.7-1.3,9.2-1.3,9.2,5.8-7.1,8.5-6.9-.2,8.1-.2,8.1,10.3-6.4,13.2-2.1-6.4,7.9-6.4,7.9,9.6-.5,9.5,3.1-8.9,8.2-8.9,8.2l-18.9,3.4-10.3,7.5-11.5,7.8-17.8,8.2-14.9,11.9-10.1,11.7-2.7,7-3,9.3-9.6-.7Z"/><path class="e" d="M967.4,453.7a42.2,42.2,0,0,1,11.6-25c10.9-11.1,24.6-14,27.8-14.3,0,0-9.5,5.7-6.9,8s7.8-1.4,7.8-1.4-3.2,8.5.5,8.5,7.5-7.3,7.5-7.3-1.2,14,2.9,14.5,3.7-3.3,3.7-3.3,2.2,8.2,5.3,6.3,1.8-10.1,1.8-10.1,5.3,5.2,8.9.8-3.9-12.6-3.9-12.6,4-6.3-1.9-8.7c0,0,6.7.2,4.4-5,0,0-.7,7.8,4.2,9.7s5.2-4,5.2-4,1.9,7.1,5.9,5-.3-9-.3-9,9.3,2.2,10.4-1-7.1-5.3-7.1-5.3,15.6,0,11.3-9.7-14.7-.9-14.7-.9,16.7-4.2,11.3-10.8-17.8,1.4-17.8,1.4,9.3-6.3,4.6-9.6-9.5,5.1-9.5,5.1,0-10.1-3.9-8.3-3.9,8.1-3.9,8.1-2-8.4-7.1-3.8-3.3,10-3.3,10-4.6-7.1-7.5-4.1-.4,11.4-.4,11.4-4.2-6.8-6.2-1.8a13.2,13.2,0,0,0-.2,9.3s-43.4,12-44.5,53.6S967.4,453.7,967.4,453.7Z"/><path class="f" d="M964.8,445.8c-6-4.3-17.3-9.9-30.6-2.6-19.3,10.7-21.4,20.4-26.5,33.9s-9.2,42.3-16.1,52.3-21.7,24.5-21.5,45.6-.5,36.4,5.2,35.6,10.1-13.7,17.3-25.2,24.8-20.5,41.3-40.4,29.2-45.5,38.3-55.4a27.5,27.5,0,0,0,4.9-31C973.8,451.7,968.1,448.2,964.8,445.8Z"/><path class="g" d="M955.2,444.7c-7.4-3.8-27.1,2.9-31.8,15.3s17,22,8.4,29.8-20.2,1.4-17.3,14.1.8,18.2-6.9,23.4-26.4,14.5-25.1,28.4-8.8,18.4-6.1,25.4,5.4,10.3,7.1,4.2-1.5-12.5,10.1-19-7-11.3,12.9-21c12.6-6.1,25.1-2.5,26.3-19.9s3.4-22,9.9-28.1,28.9-13.5,20.4-21.1-9.5-12.8-5.8-17S961.6,448.1,955.2,444.7Z"/><path class="h" d="M1002.8,362s-15.2-5-8.7-10.7,11.7,4.4,11.7,4.4-.2-12.1,4.7-10.5,1.6,14.4,1.6,14.4,10.1-5.6,9.9,1.2-10.1,7.5-10.1,7.5,8.2-4.1,6.7-6.4-9,.1-9,.1,2.4-11,.4-9.9-3.5,8.4-3.5,8.4-7.5-9-9.5-6.6S1002.8,362,1002.8,362Z"/><path class="i" d="M911.9,483.5c-1.9,1.7,15.3,5.6,16.7,3S915,480.9,911.9,483.5Z"/><path class="i" d="M906.8,507.9c-1.5,1.3,11.6,4.2,12.6,2.3S909.1,505.9,906.8,507.9Z"/><path class="i" d="M946.5,465c-2,1.7,15.2,5.6,16.6,3S949.5,462.4,946.5,465Z"/><path class="i" d="M940.1,495.2c-1.9.7,9.3,7.9,11.1,6.4S943.2,494.1,940.1,495.2Z"/><path class="i" d="M925.7,519.8c-2.1.7,10.2,8.6,12.2,7S929,518.6,925.7,519.8Z"/><path class="i" d="M907.7,540.6c-2.1.7,10.2,8.6,12.2,7S911,539.3,907.7,540.6Z"/><path class="i" d="M891.9,554c-1.7.6,7.8,6.7,9.4,5.5S894.4,553.1,891.9,554Z"/><path class="j" d="M931.4,452.3c-8.2,5.9-6.7,12.7-2.9,16.5s7.7.4,12.2-5.7,15.2-7.5,12.3-12.3S941.8,444.8,931.4,452.3Z"/><path class="j" d="M951.5,474.9c-7.6,2.4-15,6.5-15.4,10.6s5,5.1,9.2,4.4,16.5-7.7,16.4-11S955.5,473.6,951.5,474.9Z"/><path class="j" d="M919.1,497.6c-3.8,2.9-1.7,6.5,1.8,9.2s10.3,1.1,12.7-3.4S922.1,495.3,919.1,497.6Z"/><path class="j" d="M914.2,524.9c-5.6,3.9-4.1,9.7-.9,12.5s11.1.1,13.9-3.1S921.2,520,914.2,524.9Z"/><path class="k" d="M932.7,454.8c-5.1,4.2-3,11.3-3,11.3.4-3.6,2.8-6.7,5.7-9.2Z"/><path class="k" d="M936,452.7l1.4,2.7a47.8,47.8,0,0,1,10.4-5.1A33.3,33.3,0,0,0,936,452.7Z"/><path class="k" d="M945.8,479.5c-4.8,2.1-4.9,7.8-4.9,7.8,1.1-2.7,3.6-4.5,6.4-5.7Z"/><path class="k" d="M948.8,478.6l.3,2.2A40.5,40.5,0,0,1,958,479,24.6,24.6,0,0,0,948.8,478.6Z"/><path class="k" d="M912.8,530c-1.5,3.1,1.3,6.3,1.3,6.3a7.4,7.4,0,0,1,.6-5.8Z"/><path class="k" d="M914,528.3l1.3,1.1a23.9,23.9,0,0,1,4-4.7A15,15,0,0,0,914,528.3Z"/><polygon class="l" points="867.9 583.1 859.1 582.3 864.9 470.6 876.8 471 867.9 583.1"/><polygon class="m" points="864.9 470.6 871.8 462.7 883.2 464.3 876.8 471.7 864.9 470.6"/><polygon class="n" points="867.9 583.1 872.3 577.8 883.2 464.3 876 471.6 867.9 583.1"/><polygon class="l" points="862.2 600.7 854.9 600.1 860.5 497.3 870.5 497.5 862.2 600.7"/><polygon class="m" points="860.5 497.3 866.3 489.9 875.9 491.4 870.4 498.2 860.5 497.3"/><polygon class="n" points="862.2 600.7 866 595.8 875.9 491.4 869.8 498.1 862.2 600.7"/><polygon class="l" points="889.6 587.6 882.8 584.5 918.2 488.7 927.6 492.2 889.6 587.6"/><polygon class="m" points="918.2 488.7 925.9 483.6 934.6 488.2 927.4 492.8 918.2 488.7"/><polygon class="n" points="889.6 587.6 894.6 584.1 934.6 488.2 926.8 492.5 889.6 587.6"/><polygon class="l" points="900.5 604.1 892.4 600.6 934.1 493.3 945.4 497.4 900.5 604.1"/><polygon class="m" points="934.1 493.3 943.3 487.7 953.7 492.9 945.1 498 934.1 493.3"/><polygon class="n" points="900.5 604.1 906.5 600.2 953.7 492.9 944.4 497.7 900.5 604.1"/><polygon class="l" points="910.1 624.8 901.9 621.3 943.7 514.1 955 518.2 910.1 624.8"/><polygon class="m" points="943.7 514.1 952.8 508.5 963.3 513.7 954.7 518.8 943.7 514.1"/><polygon class="n" points="910.1 624.8 916.1 621 963.3 513.7 954 518.5 910.1 624.8"/><polygon class="l" points="905.3 576.8 897.9 576.1 903.5 473.3 913.5 473.6 905.3 576.8"/><polygon class="m" points="903.5 473.3 909.3 466 918.9 467.4 913.4 474.2 903.5 473.3"/><polygon class="n" points="905.3 576.8 909 571.9 918.9 467.4 912.8 474.2 905.3 576.8"/><polygon class="l" points="890 589.3 882.6 588.6 888.2 485.8 898.2 486.1 890 589.3"/><polygon class="m" points="888.2 485.8 894 478.5 903.7 479.9 898.2 486.7 888.2 485.8"/><polygon class="n" points="890 589.3 893.8 584.4 903.7 479.9 897.5 486.7 890 589.3"/><polygon class="l" points="850.7 590.9 842.4 592.4 817.8 486.8 828.9 484.2 850.7 590.9"/><polygon class="m" points="817.8 486.8 822 477.7 833 476.3 829 484.8 817.8 486.8"/><polygon class="n" points="850.7 590.9 853.4 584.8 833 476.3 828.3 484.9 850.7 590.9"/><polygon class="l" points="822.4 618 815.1 619.5 794.3 518.9 804 516.3 822.4 618"/><polygon class="m" points="794.3 518.9 798 510.2 807.7 508.8 804.1 516.9 794.3 518.9"/><polygon class="n" points="822.4 618 824.8 612.2 807.7 508.8 803.5 517.1 822.4 618"/><polygon class="l" points="840.7 589 833.6 591.3 802.5 493.9 811.9 490.1 840.7 589"/><polygon class="m" points="802.5 493.9 805.3 484.7 814.7 482.2 812 490.7 802.5 493.9"/><polygon class="n" points="840.7 589 842.5 582.9 814.7 482.2 811.4 490.9 840.7 589"/><polygon class="l" points="874.8 588.2 867.4 587.2 877.4 484.8 887.4 485.5 874.8 588.2"/><polygon class="m" points="877.4 484.8 883.6 477.8 893.1 479.7 887.3 486.2 877.4 484.8"/><polygon class="n" points="874.8 588.2 878.7 583.5 893.1 479.7 886.7 486.1 874.8 588.2"/><polygon class="l" points="843.4 619.2 836.7 621.6 804.9 528.7 813.9 524.9 843.4 619.2"/><polygon class="m" points="804.9 528.7 807.5 519.9 816.5 517.3 814.1 525.5 804.9 528.7"/><polygon class="n" points="843.4 619.2 845 613.4 816.5 517.3 813.5 525.7 843.4 619.2"/><polygon class="l" points="863.6 582.4 856.2 582.8 848.6 480.1 858.6 478.9 863.6 582.4"/><polygon class="m" points="848.6 480.1 853.4 472 863.1 472 858.6 479.6 848.6 480.1"/><polygon class="n" points="863.6 582.4 866.7 576.9 863.1 472 857.9 479.6 863.6 582.4"/><polygon class="l" points="852.1 581 842.9 581.4 832.3 470.2 844.5 469 852.1 581"/><polygon class="m" points="832.3 470.2 838.1 461.5 850.1 461.6 844.6 469.7 832.3 470.2"/><polygon class="n" points="852.1 581 855.8 575.2 850.1 461.6 843.8 469.7 852.1 581"/><polygon class="l" points="855 581.3 848.5 582.3 835.1 489.9 843.8 488 855 581.3"/><polygon class="m" points="835.1 489.9 838.8 482.1 847.3 481.4 843.8 488.6 835.1 489.9"/><polygon class="n" points="855 581.3 857.4 576.1 847.3 481.4 843.3 488.6 855 581.3"/><polygon class="l" points="888.3 599.3 881 598.2 891.9 495.9 901.8 496.7 888.3 599.3"/><polygon class="m" points="891.9 495.9 898.1 488.9 907.6 490.9 901.8 497.4 891.9 495.9"/><polygon class="n" points="888.3 599.3 892.3 594.6 907.6 490.9 901.1 497.3 888.3 599.3"/><polygon class="l" points="874.6 604.6 868.9 603.4 882.1 523.4 889.9 524.5 874.6 604.6"/><polygon class="m" points="882.1 523.4 887.3 518.2 894.7 520.2 889.8 525 882.1 523.4"/><polygon class="n" points="874.6 604.6 878 601.1 894.7 520.2 889.3 524.9 874.6 604.6"/><polygon class="l" points="850.4 607.3 844.7 606 857.9 526 865.7 527.2 850.4 607.3"/><polygon class="m" points="857.9 526 863.1 520.8 870.5 522.9 865.6 527.7 857.9 526"/><polygon class="n" points="850.4 607.3 853.8 603.8 870.5 522.9 865.1 527.6 850.4 607.3"/><polygon class="l" points="854.5 601.8 848.7 602.7 835.7 522.6 843.4 520.9 854.5 601.8"/><polygon class="m" points="835.7 522.6 838.9 515.8 846.5 515.1 843.4 521.4 835.7 522.6"/><polygon class="n" points="854.5 601.8 856.6 597.2 846.5 515.1 842.9 521.5 854.5 601.8"/><polygon class="l" points="889.6 595.6 883.9 593.9 902.2 515 909.9 516.8 889.6 595.6"/><polygon class="m" points="902.2 515 907.7 510.2 915 512.8 909.8 517.3 902.2 515"/><polygon class="n" points="889.6 595.6 893.2 592.3 915 512.8 909.3 517.1 889.6 595.6"/><polygon class="l" points="910.6 620.3 905.5 617.2 941.4 545.5 948.5 549.2 910.6 620.3"/><polygon class="m" points="941.4 545.5 947.9 542.3 954.3 546.7 948.3 549.7 941.4 545.5"/><polygon class="n" points="910.6 620.3 914.8 618.1 954.3 546.7 947.8 549.4 910.6 620.3"/><polygon class="l" points="907.1 601.9 902 598.8 937.9 527.1 945 530.8 907.1 601.9"/><polygon class="m" points="937.9 527.1 944.4 523.9 950.8 528.3 944.8 531.2 937.9 527.1"/><polygon class="n" points="907.1 601.9 911.3 599.7 950.8 528.3 944.3 531 907.1 601.9"/><polygon class="l" points="922.5 609.4 917.4 606.3 953.3 534.6 960.4 538.3 922.5 609.4"/><polygon class="m" points="953.3 534.6 959.7 531.4 966.2 535.8 960.1 538.8 953.3 534.6"/><polygon class="n" points="922.5 609.4 926.7 607.2 966.2 535.8 959.7 538.5 922.5 609.4"/><polygon class="l" points="899.2 582.5 894.1 579.5 930 507.8 937.1 511.5 899.2 582.5"/><polygon class="m" points="930 507.8 936.4 504.5 942.9 508.9 936.8 511.9 930 507.8"/><polygon class="n" points="899.2 582.5 903.4 580.3 942.9 508.9 936.4 511.6 899.2 582.5"/><polygon class="l" points="913.1 605.1 907.5 603.4 926.9 524.8 934.6 526.6 913.1 605.1"/><polygon class="m" points="926.9 524.8 932.5 520.1 939.7 522.8 934.5 527.1 926.9 524.8"/><polygon class="n" points="913.1 605.1 916.7 601.9 939.7 522.8 934 527 913.1 605.1"/><polygon class="l" points="904.6 591.4 898.6 589.9 914.9 505.5 923.2 507 904.6 591.4"/><polygon class="m" points="914.9 505.5 920.6 500.2 928.4 502.6 923.1 507.5 914.9 505.5"/><polygon class="n" points="904.6 591.4 908.3 587.8 928.4 502.6 922.6 507.4 904.6 591.4"/><polygon class="o" points="898.2 683.1 916.9 679.5 940.6 582.3 922.9 584.4 922.6 558.7 898.2 683.1"/><polygon class="p" points="922.9 584.4 900.7 671 916.9 679.5 940.6 582.3 922.9 584.4"/><path class="q" d="M898.2,683.1l-75.6-1.2L801.8,556.8l32.8.5s.4,20.8,27.7,21,28.9-20.1,28.9-20.1l31.4.5Z"/><polygon class="r" points="848.9 599.4 857.2 610.9 866.2 599 872.7 612.3 890 604.1 887.3 619.4 904.8 620.4 893.4 632.9 902.5 645 887.6 649.1 894.5 664.6 874.6 655.8 873.1 673.3 859.3 657.2 846.6 675.9 842.6 652.7 821.1 658 831 639.3 815.8 627 833.5 622.3 826.8 603.4 845.9 613.9 848.9 599.4"/><polygon class="s" points="808.1 594.5 915.2 596.4 917.3 585.6 806.3 583.6 808.1 594.5"/><ellipse class="t" cx="861.9" cy="634.4" rx="31.5" ry="22.9" transform="translate(-12.9 18) rotate(-1.2)"/><path class="s" d="M841,638.9l.4,4.2-3.2.4-1.2-13,7.5-.8a28.5,28.5,0,0,1,.3,2.9l-4.4.5.3,2.8,3.9-.4c.1,1.1.2,1.8.3,3Z"/><path class="s" d="M858.4,640.8v.4l-3.5.4-2.5-3.6-1.6.2.4,3.8-3.1.4c-.4-4.4-.9-8.7-1.3-13l5.4-.6c4.8-.5,6.2,5.5,3.4,8.1Zm-5.8-9-2.3.2.3,3.2,2.3-.2C854.6,634.8,854.3,631.6,852.6,631.8Z"/><path class="s" d="M865.2,637.6c.1,1,.2,1.7.3,2.9l-6.2.6c-.1-1.1-.1-1.8-.2-2.9h1.5l-.7-7.2h-1.4c-.1-1.1-.2-1.7-.3-2.8l5.9-.7a28.5,28.5,0,0,1,.3,2.9l-1.4.2.7,7.1Z"/><path class="s" d="M874.2,629.4l-4.5.5.2,1.8,4.1-.4.3,2.9-4.2.5.3,2.3,4.6-.6.3,3-7.7.8c-.5-4.3-.9-8.6-1.3-12.9l7.6-.9Z"/><path class="s" d="M883.6,634.6c-.1-.9-1.1-1-2.4-.9s-4.4-.7-4.8-3.5c-.6-5.6,8.9-6.6,9.3-1l-2.9.3c-.2-1.7-3.4-1.2-3.4.3s.9,1.1,2.1,1.1,4.8.1,5.1,3.4c.5,5.4-9.4,6.6-9.8.9l3-.3C879.9,636.5,883.7,636.1,883.6,634.6Z"/><path class="u" d="M1121.8,597.8s20.4,1,33.5-16.5,32.9-39.6,32.9-39.6l-9.6-3s-17.4-4.5-46.9,29.8l-5.5,13.8-2.2,6.5Z"/><g class="v"><path class="w" d="M1160.6,557.1l1.4,7.8,8.5-6.4,12.1-14.5,2.2-3.4-6.2-1.9s-2.4-.7-6.8.3C1163.8,549,1160.6,557.1,1160.6,557.1Z"/></g><path class="x" d="M1098.6,651.7a38.1,38.1,0,0,1,24.5-12.2c15.9-1.4,34,11,41.4,13.4,0,0-4.9,7.4-18.1,12.6s-25.8,4.5-35.7.1C1097.6,659.8,1098.6,651.7,1098.6,651.7Z"/><path class="y" d="M1099.3,650.8s14.1,1.1,24.6,3,16.4,6.5,26.9,3.7,13.7-4.6,13.7-4.6a40.1,40.1,0,0,1-19.8,7.1c-12,1-15-3.6-27.3-5.6s-18.7-1.4-18.7-1.4l-1.7-1.1Z"/><g class="v"><path class="z" d="M1131.6,639.9c1.7,1.7,5,4.3,11,7a25.3,25.3,0,0,0,13.2,2C1149.1,645.6,1140.3,641.4,1131.6,639.9Z"/></g><path class="y" d="M1127.6,582.7s23.8-11,36.8-23.1l-1-.7a132.3,132.3,0,0,1-34.4,20.9Z"/><g class="v"><path class="w" d="M1126.1,597.6a49.2,49.2,0,0,0,11.2-2.7,93.6,93.6,0,0,0,2-34.7c-2.4,2.5-4.9,5.2-7.6,8.3l-2.8,7-.2,17.5Z"/></g><path class="u" d="M1076.6,645.9s-5-18,5.5-40.7,31.5-32,31.5-32S1121.2,619.8,1076.6,645.9Z"/><path class="y" d="M1037.7,669.5a8.4,8.4,0,0,1,1.4-6.6s13.2,2.2,25.5-1.4,23.9-12.8,32.9-20.2,19.2-10.8,31.2-25.3c14.1-17.2,19-22.4,19-22.4s-13.5,19.2-28.8,34.3-27.8,22.6-43.6,31.8S1037.7,669.5,1037.7,669.5Z"/><path class="y" d="M1096.6,634.9a21.1,21.1,0,0,1-4.7,13.4l6.6-5.8a51.1,51.1,0,0,0-.1-7.8Z"/><path class="y" d="M1087.8,651.4v.7a15.7,15.7,0,0,1,6.1-.5,22.8,22.8,0,0,1,4.7,1.4l2.2-.6-1.6-1.6s-7.7-.7-9.9-2l-1.5,1.9Z"/><path class="y" d="M1113.3,631.8l-3.4,3.6s8.2-4.3,13-4.5l2.1-.7-1.3-2.1a31.4,31.4,0,0,1-7.9,1.6l-3.2,2.4Z"/><path class="y" d="M1114.1,631.5a116,116,0,0,0-3.4-13l4,.5a20.2,20.2,0,0,0,0,5.6c.4,3.6,2.3,4.2,2.3,4.2Z"/><path class="y" d="M1124.2,621.7s-4.4-4.5-4.5-13.7l-3,3.8s3.9,9.9,5.3,12.5Z"/><path class="aa" d="M1122.3,630s10-15.4,27.9-22.6,41.2,7.5,41.2,7.5-19,21.8-33.1,28.1S1126,636.6,1122.3,630Z"/><path class="y" d="M1188.9,616.2c-29.1,6.9-55.7,10.7-65.2,11.9-.9,1.2-2.2.9-2.2,1.7s1.2.8,1.4,1.1C1155.9,627.4,1188.9,616.2,1188.9,616.2Z"/><path class="y" d="M1078.1,644.9s.3-4.3,7.7-19.7,27.8-52,27.8-52-24.1,34.9-37.6,69.9l.6,2.8Z"/><path class="x" d="M1146.5,595.3s31.9-27.6,61.8-74.1C1208.3,521.2,1170.7,571.4,1146.5,595.3Z"/><path class="aa" d="M1156.7,593.5l-.5.4-2.4,1.8-7.3-.4s-2.6-19.4,18.6-43.5,43.2-30.6,43.2-30.6,6.1,16.4-16.4,46.7l-22.7,18-5.2,3.4Z"/><path class="aa" d="M1156.7,593.5l-.5.4-2.4,1.8-7.3-.4s-2.6-19.4,18.6-43.5,43.2-30.6,43.2-30.6,6.1,16.4-16.4,46.7l-22.7,18-5.2,3.4Z"/><path class="aa" d="M1112.5,621.3s17.5-16,23.5-47.2-4.3-41.4-4.3-41.4-21.1,18.6-27.2,46.1A55.9,55.9,0,0,0,1112.5,621.3Z"/><path class="y" d="M1116.6,583.3c3.3-20.1,15.2-48.3,15.2-48.3s-12.1,23.5-16.9,48.2c-3.8,20-4.2,31-4.2,35.3a19,19,0,0,1,1.7,3.7,21.3,21.3,0,0,1,2.2-3.1A184.5,184.5,0,0,1,1116.6,583.3Z"/><path class="y" d="M1076,643.1s-2.9,12.7-8.6,18.5l7.3-2.9s2.4-8.1,3.4-13.8l-.7-1.5Z"/><path class="y" d="M1142.5,600.6s12.7-16.2,24.8-30.7,39.6-46.8,39.6-46.8c-24.1,26.2-46.3,52.1-65.3,77.4l.2.9Z"/><g class="v"><path class="w" d="M1087.9,595.3a59.3,59.3,0,0,0-4.3,7,59.2,59.2,0,0,0,5.3,5.5l7,13.7,6.4.4a70.6,70.6,0,0,0,4.2-7.5C1106,610.6,1102.1,599.3,1087.9,595.3Z"/></g><path class="x" d="M1097.7,635.2s11.3-8.1,4.5-25.1-35.2-19.5-35.2-19.5,8.1,4.1,10.9,17.5S1086.8,632.6,1097.7,635.2Z"/><path class="y" d="M1097.3,636.2l-.7-1.3s.4-14-6.3-24.5a56.2,56.2,0,0,0-16.9-16.6s15.2,8.7,19.8,16.9,5.3,24.6,5.3,24.6Z"/><g class="v"><path class="z" d="M1150.4,595.5l3.4.2,2.4-1.8.5-.4,7.3-4.2,5.2-3.4,22.7-18a106.1,106.1,0,0,0,9.9-15.6C1171.3,559.8,1155.1,587.5,1150.4,595.5Z"/></g><path class="y" d="M1139.6,604.5s10.3-7.3,15.1-7.4L1153,595l-12.2,6.6-1.5,2.1Z"/><path class="ab" d="M1152.2,596.5s9.4-19.3,32.5-33.6,46.6-12,46.6-12-11.1,27.7-34.8,40.4C1174.8,602.8,1152.2,596.5,1152.2,596.5Z"/><path class="y" d="M1153,595a11.8,11.8,0,0,1-2,2.2,12,12,0,0,1,3.7-.1c45.6-18.6,74.6-45.8,74.6-45.8C1200,575.9,1162.6,591.3,1153,595Z"/><g class="ac"><path class="ad" d="M1110.6,566.2c-1.7,6.3-6.4,20.1,7.3,21.7,21.4,2.4,17.5-50.8,13.3-50.6S1113.3,555.8,1110.6,566.2Z"/></g><g class="ac"><path class="ad" d="M1116.1,558.8c-1,3.8-3.7,11.8,4.3,12.7,12.5,1.5,10.2-29.7,7.7-29.5S1117.7,552.8,1116.1,558.8Z"/></g><g class="ac"><path class="ae" d="M1186.7,564.1c-5.4,4.3-7.2,12.7-.7,18.9s18.7,2.3,26.3-6,15.2-19.9,12.8-22.1S1197.6,555.4,1186.7,564.1Z"/></g><g class="ac"><path class="ae" d="M1197.4,562.7a7.5,7.5,0,0,0-.4,11.5c4,3.8,11.5,1.4,16.1-3.6s9.3-12.2,7.9-13.6S1204.1,557.4,1197.4,562.7Z"/></g><g class="ac"><path class="ae" d="M1148.1,613.5c-9.6,8.3-7.4,26.1,8.5,26.1,9.8-.1,29.1-17.7,28.6-24.5S1159.2,603.8,1148.1,613.5Z"/></g><g class="ac"><path class="ae" d="M1161.4,616.5c-5.3,4.6-4.1,14.4,4.7,14.4,5.4,0,16-9.7,15.8-13.5S1167.5,611.1,1161.4,616.5Z"/></g><path class="af" d="M956.6,701.9s56,13.3,148.4,4.4-86.4-18.4-86.4-18.4Z"/><path class="ag" d="M1090.7,583.8H937.8s-5.3,24.3,10.2,45.3,53.1,23.7,54.7,51.8c0,0-28.7,2-46.1,21h115.3c-17.4-19-46.1-21-46.1-21,1.6-28.1,39.1-30.7,54.7-51.8S1090.7,583.8,1090.7,583.8Z"/><path class="ah" d="M941.6,583.8l-3.4,11,8.8,30.6,21.4,17.5,21.8,13.8,11.9,12.5,3.6,10.7-11.5,7.4-20.4,14.6h32.5a191.7,191.7,0,0,1,9-20.7c-1-27.6-15.8-37-29.9-54.8s-13.1-42.6-13.1-42.6Z"/><path class="ai" d="M937.8,583.8s-5.3,24.3,10.2,45.3,53.1,23.7,54.7,51.8c0,0-28.7,2-46.1,21h24.7c7.9-11.4,26.4-19.9,26.4-19.9-6.9-33.7-40.5-35.4-55.6-57-12-17.3-10.6-34.8-8.9-41.2Z"/><path class="ah" d="M1039.8,639.9c-18.9,27.4-22.1,32.7-23.2,41.5,0,0,5.4,12.2,6.2,20.5h24.3l-14.3-12.4-11.9-9.4,4.2-7.5,5.9-9.2,8.2-7.8,21.6-15.5,18.1-16.6,8.6-31.1-2.3-8.6H1054S1058.6,612.5,1039.8,639.9Z"/><path class="ai" d="M1084.3,583.8c-.8,9.3-4,31.3-18.2,45.5-18.4,18.5-43.7,28.1-46.7,53.2l19.9,19.4h32.6c-17.4-19-46.1-21-46.1-21,1.6-28.1,39.1-30.7,54.7-51.8s10.2-45.3,10.2-45.3Z"/><path class="aj" d="M975.8,623.5c-9-12.9-7.7-29.8-7.7-29.8H947s-.2,21.4,11.6,34.9a36.4,36.4,0,0,0,4.5,4.3Z"/><path class="aj" d="M982.8,630.8l-.6-.4L975,640.6c13.9,7.4,29.5,13.1,34.2,27.4C1009.2,668,1008.1,649.9,982.8,630.8Z"/><path class="ak" d="M978.1,583.8s2.4,31.9,21.2,49.1c21.6,19.8,37.6,5.3,45-17.7a79.1,79.1,0,0,0,3.2-31.4H978.1Z"/><g class="v"><path class="w" d="M937.8,583.8a57.5,57.5,0,0,0-.5,17.1c1.6,1.9,3.5,3.1,5.8,3,9-.5,6.4-12.7,11.6-10.2s4.6,10,10.3,6.1,4.3-14.4,11.8-10.2,8.2,11,13.5,11,7.2-9.2,13.8-8.8,3.1,12.3,10.1,10,4-16.7,10.7-15.1,8.6,12.3,13.4,12.6,13.8-12.1,13.8-12.1l.2,18.4s3.2,4.9,7.4-.1,2.8-19.3,8.2-19.8.2,10.3,6.6,13.6,6.8-15.5,10.7-15.5H937.8Z"/><path class="w" d="M1090.7,583.8h-5.5a17.5,17.5,0,0,1,5.7,1.4C1090.8,584.3,1090.7,583.8,1090.7,583.8Z"/></g><polygon class="al" points="1044.3 483.2 1051.8 426.1 1071.4 422 1051.8 493.4 1044.3 483.2"/><polygon class="al" points="1057.8 508.4 1077.8 452.5 1096.8 462.1 1067.1 517.1 1055.5 514.7 1057.8 508.4"/><polygon class="am" points="1048 454.9 1064.9 445.6 1067.9 434.9 1049.8 441.4 1048 454.9"/><polygon class="am" points="1044.7 480 1057 474.4 1060 463.6 1046.4 467.3 1044.7 480"/><polygon class="al" points="1077.8 452.5 1074.5 461.7 1092.6 460 1077.8 452.5"/><polygon class="am" points="1065.9 485.7 1087.1 480 1091.9 471.2 1070.2 473.7 1065.9 485.7"/><polygon class="am" points="1058.8 505.6 1074.2 504 1078.9 495.2 1062.5 495.2 1058.8 505.6"/><path class="an" d="M1069.1,528.7s4.5-11.5.9-16.6-9.3-2.1-9.3-2.1,3.1-20.5-15.4-32.6-40.5-6.6-46.6-1.5c0,0-10.4-.2-17.9,10.5s-9.1,30.6-5.9,39,18.6,9.5,20,9.9l44.4,11.3Z"/><path class="ao" d="M978.3,517.1a47,47,0,0,1,3.2-21.2c4.6-11.7,14.1-10.1,14.1-10.1s5.8-5.7,10.3-5.8c0,0-9.1,11.5-5.6,22.9s16.1,13.8,23.3,14.2,30.6-2.8,32.7-15.9c0,0,2.5,9.6.7,14.6,0,0,5.6-4.6,8.7-1.8s1.9,11.1,1.5,11.4-20,6.3-20.4,6.6-12,4.3-12,4.3l-23.9-7.9L991,524.8Z"/><path class="ap" d="M1016.1,477.9c-5.3,2.6-11.4,8.5-6.8,15.5,0,0-5.1,7,9.5,13.3s16.5-2,16.5-2,14.1-2.2,12.5-11.3-7.3-13.7-11.8-14.8C1036,478.6,1015.7,470.6,1016.1,477.9Z"/><path class="aq" d="M1030.3,533.4s4.1-8,21.1-11.9,26.3,8.8,28.3,13c0,0,9.6,3,13,9.8,0,0,9.3,3.5,7.2,15.2,0,0,3.4,18.5-9.2,24.3,0,0-3.2,9.6-6.9,8.3s-2.5-7.4-4.7-5.1-1.9,13.5-7.3,10.7-6.3-10.5-9.8-8.6-1.1,15.1-8.3,16.4-5.7-11.5-9.8-13.8-5,5.6-8.7,1-1.1-7.4-3.4-8.9-5.6-3.4-5.6-3.4-.3-19.3-.2-19.9S1030.3,533.4,1030.3,533.4Z"/><path class="ar" d="M1037.2,564.3s3.2,5.7,8.1,6.8,1.8,6.5,8.2,7.6,19.1-2.1,21.1-4.4-1.4-8.4,6.9-14.9c0,0,3.8-8.5-1.7-14.9,0,0,4.8-1.4,9.2,4.9s4.7,9.7,4.7,9.7,4.7,4.1,2.9,12.4a21.7,21.7,0,0,1-7.6,12.3s-.8,3.3-3.8,4.1-1.7-7-4.9-5.6-5.7,10.6-8.1,10.8-5.8-11.5-10-8.9-6.4,23.6-10.2,16.8-1.7-15.6-6.4-14.9-7.8,5.6-8.4,3.5-3.5-11.5-3.5-11.5l2.4-8.6Z"/><path class="as" d="M1044.3,533s.7-5.7,11.2-7,12.7,6.2,12.7,6.2,7.7,1.7,8,8.9-2,10.1-2,10.1a13.4,13.4,0,0,1-8.9,12.7c-9.2,3.4-17-4-19.8-10.2a10.2,10.2,0,0,1-8.6-7.1C1034.5,539.9,1037.2,532.9,1044.3,533Z"/><path class="at" d="M1038.9,541.2c-8-25.4-29.5-26.1-39-21.3,0,0-9.1-5.4-14.4-3.7,0,0-9.7-4.7-20.8,2.2s-17.3,13.6-19.1,18.9a38.2,38.2,0,0,0-2,9.7s-7.1,2.8-4.6,7.8,5.7,4.1,5.7,4.1-1.6,8.4-3.4,11.1-6.1,10-3.5,13.8a23.9,23.9,0,0,1,4.4,11.7c.5,6.5,6.1,8.3,7.3,3.2s3.1-11.2,5.6-10.9h.1c2.5.3,3.3,9.4,6.5,9.6s3.3-7.4,6.4-8.2h1c1.9,1.1,1.6,7.7,7.7,7.4s4.7-6.5,9.1-6.1,1.7,5.9,6.2,6.1,4.8-5.1,7.1-4.9,2.3,8.2,10,9.9,6.8-9.7,9.3-11.9l.8-.3s.1-.1.1,0c3.6.2,1.7,4.2,6.6,4.3s8.6-12.9,10.6-17.7A46.3,46.3,0,0,0,1038.9,541.2Z"/><path class="au" d="M1002.7,523.7s8-1.9,15.1,0,13,10.6,13.2,17c0,0-.8,10.8-6.3,16.9,0,0,.3,6.9-4.3,8.1s-15.2-4.7-15.2-4.7-5.3,2.9-15.2-2.2-11.2-14.9-7.9-18.2c0,0-4.2-9.9,5.9-14.4S1002.7,523.7,1002.7,523.7Z"/><path class="av" d="M958.4,526.5c-11.6,8.2-11.4,22.6-11.4,22.6s-7.9,1.9-5.6,5,7,2.8,7,2.8-.1,11.6-5.4,17.5-1.6,7.7-.5,10.9,2.7,11.5,4.5,10.4c3.4-2.1,3.4-14.1,8.4-12s2.9,9.8,6,7.8,5.3-10.5,7.6-7,5.6,10,9.1,7.4,8.2-10.5,11-6,2.9,8.8,4.7,6.4,6.1-9.4,7.9-5.6,4.7,11.9,8.8,9.7,6.5-10.7,8.9-11.1,2.5,5.4,7.5,1.9,9.2-17.7,9.2-17.7-5.3,11.5-11,9.9-6.9-5.3-12.1-.2-9.1-7.6-13.8-3.1-7.9,10-10.1,4.3-2.3-10.8-6.1-4.1-5.6,8.2-10.7-.2-4.9-14.5-9.2-7.9-10.2,5.3-6.1-3.3.5-13.9-1.1-20.5S958.4,526.5,958.4,526.5Z"/><path class="aw" d="M1145.2,1283.2h591.5a0,0,0,0,1,0,0v0a61.7,61.7,0,0,1-61.7,61.7H1206.8a61.7,61.7,0,0,1-61.7-61.7v0A0,0,0,0,1,1145.2,1283.2Z" transform="translate(2881.9 2628.1) rotate(180)"/><path class="aw" d="M833.3,148.4l1246.9,12.8a20.7,20.7,0,0,0,20.9-20.4h0a20.7,20.7,0,0,0-20.5-20.9L833.7,107.1a20.7,20.7,0,0,0-20.9,20.5h0A20.6,20.6,0,0,0,833.3,148.4Z"/><polygon class="ax" points="2109.9 253.9 2041.5 229.7 2112.4 41.5 2180.8 65.7 2109.9 253.9"/><polygon class="ay" points="2128.1 126.5 2112.2 120.9 2132 68.3 2147.9 74 2128.1 126.5"/><path class="az" d="M2061.3,759.7l-318.6-113c-28.3-10-44-37.3-35-61l154.1-409.3c3-8.1,10.8-14,20.6-15.6,144.7-24.1,300.3,31,394.9,139.9,6.4,7.4,8.5,16.8,5.4,24.9L2128.6,734.8C2119.6,758.6,2089.5,769.7,2061.3,759.7Z"/><path class="ba" d="M2107.1,601.5,1812.7,497.2a2.5,2.5,0,0,1-1.6-3.2l95.2-252.9a2.6,2.6,0,0,1,3.3-1.5L2204.1,344a2.4,2.4,0,0,1,1.5,3.2L2110.4,600A2.6,2.6,0,0,1,2107.1,601.5Z"/><polygon class="bb" points="2101.2 587.4 1826.6 490 1915.6 253.8 2190.2 351.1 2101.2 587.4"/><path class="k" d="M1885.9,449.6l69.7,24.7c.2.1.5-.1.6-.3l1.9-5.2a.5.5,0,0,0-.2-.6l-69.8-24.7a.4.4,0,0,0-.6.3l-1.9,5.2A.4.4,0,0,0,1885.9,449.6Z"/><path class="k" d="M1968.7,478.4l22-58.5c.1-.2-.1-.5-.3-.6l-6.3-2.2a.4.4,0,0,0-.6.3l-22,58.4a.5.5,0,0,0,.2.6l6.4,2.2A.5.5,0,0,0,1968.7,478.4Z"/><path class="k" d="M1906.2,381.5l22-58.4a.4.4,0,0,0-.3-.6l-6.3-2.3a.7.7,0,0,0-.6.3l-22,58.4a.4.4,0,0,0,.3.6l6.3,2.3C1905.8,381.9,1906.1,381.7,1906.2,381.5Z"/><path class="k" d="M1881.4,447.4l22-58.4c.1-.2-.1-.5-.3-.6l-6.3-2.2a.4.4,0,0,0-.6.2l-22,58.5a.4.4,0,0,0,.3.6l6.3,2.2A.4.4,0,0,0,1881.4,447.4Z"/><path class="k" d="M1930.3,329.5l69.8,24.7c.2.1.5-.1.6-.3l1.9-5.2a.4.4,0,0,0-.3-.6l-69.7-24.7a.4.4,0,0,0-.6.3l-2,5.2A.7.7,0,0,0,1930.3,329.5Z"/><path class="k" d="M1885.9,449.6l69.7,24.7c.2.1.5-.1.6-.3l1.9-5.2a.5.5,0,0,0-.2-.6l-69.8-24.7a.4.4,0,0,0-.6.3l-1.9,5.2A.4.4,0,0,0,1885.9,449.6Z"/><path class="k" d="M1908.2,390.3l69.7,24.8a.7.7,0,0,0,.6-.3l1.9-5.2a.5.5,0,0,0-.2-.6l-69.8-24.7a.4.4,0,0,0-.6.3l-1.9,5.2A.3.3,0,0,0,1908.2,390.3Z"/><path class="k" d="M1968.7,478.4l22-58.5c.1-.2-.1-.5-.3-.6l-6.3-2.2a.4.4,0,0,0-.6.3l-22,58.4a.5.5,0,0,0,.2.6l6.4,2.2A.5.5,0,0,0,1968.7,478.4Z"/><path class="k" d="M1906.2,381.5l22-58.4a.4.4,0,0,0-.3-.6l-6.3-2.3a.7.7,0,0,0-.6.3l-22,58.4a.4.4,0,0,0,.3.6l6.3,2.3C1905.8,381.9,1906.1,381.7,1906.2,381.5Z"/><path class="k" d="M1881.4,447.4l22-58.4c.1-.2-.1-.5-.3-.6l-6.3-2.2a.4.4,0,0,0-.6.2l-22,58.5a.4.4,0,0,0,.3.6l6.3,2.2A.4.4,0,0,0,1881.4,447.4Z"/><path class="k" d="M2011.3,487.2l85.2,30.2a.4.4,0,0,1,.3.5l-2,5.2a.4.4,0,0,1-.6.3L2009,493.2a.4.4,0,0,1-.2-.6l1.9-5.2A.5.5,0,0,1,2011.3,487.2Z"/><path class="k" d="M2034.1,426.6l85.2,30.2a.5.5,0,0,1,.3.6l-2,5.2a.4.4,0,0,1-.6.2l-85.2-30.2c-.2,0-.3-.3-.2-.5l1.9-5.2A.4.4,0,0,1,2034.1,426.6Z"/><path class="k" d="M2056.9,366l85.2,30.2c.2.1.4.4.3.6l-2,5.2a.5.5,0,0,1-.6.3l-85.2-30.2a.5.5,0,0,1-.2-.6l1.9-5.2C2056.4,366.1,2056.7,365.9,2056.9,366Z"/><path class="k" d="M2115.9,467.1l-17.1,45.5a.5.5,0,0,1-.6.2l-6.3-2.2a.4.4,0,0,1-.3-.6l17.1-45.4a.4.4,0,0,1,.6-.3l6.3,2.2A.4.4,0,0,1,2115.9,467.1Z"/><path class="k" d="M2060.8,379.9l-17.1,45.5a.7.7,0,0,1-.6.3l-6.3-2.3a.4.4,0,0,1-.3-.6l17.1-45.4a.4.4,0,0,1,.6-.3l6.3,2.2A.4.4,0,0,1,2060.8,379.9Z"/><path class="k" d="M1982.8,487.3l6.3,2.2a.4.4,0,0,0,.6-.3l1.9-5.2c.1-.2,0-.5-.2-.5l-6.4-2.3c-.2-.1-.5.1-.6.3l-1.9,5.2A.4.4,0,0,0,1982.8,487.3Z"/><path class="k" d="M2024.7,656.1l-58.1-59.6a.7.7,0,0,0-1.2.3l-25.9,68.8a.8.8,0,0,0,.8,1l83.9-9.3A.7.7,0,0,0,2024.7,656.1Z"/><path class="k" d="M1839.4,590.5l84-9.3a.7.7,0,0,1,.7,1L1898.2,651a.8.8,0,0,1-1.2.3l-58-59.6C1838.6,591.2,1838.8,590.5,1839.4,590.5Z"/><polygon class="aw" points="1403.4 1303.6 1478.5 1303.6 1454.3 0 1427.6 0 1403.4 1303.6"/><polygon class="aw" points="2217.6 688.8 1975.1 153.2 1732.6 688.8 1713.5 680.2 1975.1 102.4 2236.7 680.2 2217.6 688.8"/><path class="aw" d="M1228.2,648.9c-7.1,103.3-143,185.7-309.7,185.7S615.9,752.2,608.9,648.9Z"/><polygon class="aw" points="1172.8 668.7 930.3 133 687.8 668.7 668.7 660 930.3 82.2 1191.9 660 1172.8 668.7"/><circle class="aw" cx="1440.9" cy="49.3" r="49.3"/><path class="bc" d="M767.9,386.8s-2.8-59.2,45-86.6l8.6,16.4s-37.1,17.9-50.2,73.3Z"/><path class="bd" d="M774.6,378.2q1.6-4.6,3.3-9a43.1,43.1,0,0,1-7.5-7.1,115.7,115.7,0,0,0-2.2,14.8Z"/><path class="be" d="M726.4,390.9s-21.6-.9-24.5-22.3c0,0,10,10.6,30.2,9,0,0-21.2-19.1-3.4-50,0,0-7.3,29.8,26.1,40.8,0,0-7.5-20.8,13.9-36.6,0,0-11.9,28.2,9,43.8,0,0,16.8-9.7,19.4-32.6,0,0,9.5,20.8-3.9,34.4,0,0,27,3.1,36.1-20.5,0,0,5.4,24.3-21.5,30.2,0,0,16,13,39.5-1.9,0,0-6.3,28.8-54.3,20.7,0,0-19.6-12.8-20.4-13.1s-24.5-4.8-24.5-4.8-10.3,1.8-13.4,2.6S726.4,390.9,726.4,390.9Z"/><path class="bf" d="M772.2,381.5c-23.7-3.8-47.8,3.5-56.4,6.5a29.3,29.3,0,0,0,10.6,2.9s5.3.4,8.3-.3,13.4-2.6,13.4-2.6,23.7,4.4,24.5,4.8S793,405.9,793,405.9c11.9,2,21.2,1.8,28.5.2C813,399,794,385.1,772.2,381.5Z"/><path class="bg" d="M772,385.9c25.9,4.4,71.1,25.9,62,79.6s-76.3,103-106.2,96.8-66.3-79.6-52.4-126.6S732.6,379.3,772,385.9Z"/><path class="bh" d="M834,465.5c5.4-31.9-8.3-52.4-25.8-64.7-3.4,31.9-21,129.7-111.3,134.9,9.6,14.3,20.6,24.4,30.9,26.6C757.7,568.5,824.9,519.2,834,465.5Z"/><path class="bi" d="M703.8,413c-5.1-1.8-12.3,12.3-8.4,14.6S708.4,414.7,703.8,413Z"/><path class="bi" d="M737.7,416.5c-5.4-.7-8.6,14.6-4.2,15.9S742.7,417.1,737.7,416.5Z"/><path class="bi" d="M730.8,446.7c-5.4-.2-7.2,15.2-2.7,16.3S735.8,446.9,730.8,446.7Z"/><path class="bi" d="M760.1,450.8c-5.4-.7-8.7,14.6-4.3,16S765.1,451.4,760.1,450.8Z"/><path class="bi" d="M784.9,457c-5.2-1.3-10.6,13.4-6.4,15.3S789.8,458.1,784.9,457Z"/><path class="bi" d="M713.4,431.4c-5.4-.2-7.2,15.2-2.7,16.2S718.4,431.6,713.4,431.4Z"/><path class="bi" d="M711.7,464.2c-5.4.3-5.5,15.8-.9,16.4S716.7,464,711.7,464.2Z"/><path class="bi" d="M741.7,467.2c-5.4-.4-7.8,15-3.3,16.1S746.7,467.6,741.7,467.2Z"/><path class="bi" d="M768.5,474.4c-5.1-1.7-11.8,12.6-7.8,14.8S773.2,475.9,768.5,474.4Z"/><path class="bi" d="M751.6,492.8c-5.1-1.6-11.8,12.7-7.8,14.9S756.4,494.4,751.6,492.8Z"/><path class="bi" d="M713.2,505.7c-5.4,1-2.9,16.4,1.8,16.4S718.1,504.8,713.2,505.7Z"/><path class="bi" d="M696,484.6c-5.3,1-2.5,16.4,2.1,16.3S700.9,483.6,696,484.6Z"/><path class="bi" d="M726.2,484.5c-5.4.3-5.4,15.8-.8,16.4S731.2,484.2,726.2,484.5Z"/><path class="bi" d="M728.4,399.3c-4.9-2.2-13.4,11.3-9.7,13.9S732.9,401.3,728.4,399.3Z"/><path class="bi" d="M692.9,444.8c-5.5.3-5.5,15.8-.9,16.4S697.9,444.6,692.9,444.8Z"/><path class="bj" d="M801.2,535.5h0c6.9,3.2,13.7,3.1,20.9-4.1,4.8-4.9,13.1-13.8,19-30.9a26.5,26.5,0,0,0-16.4-14.2c-4.1-1.3-15.6-.9-15.6-.9s-7.3,18.6-14.8,31.5C789.7,524.7,793.8,532.1,801.2,535.5Z"/><path class="bj" d="M828.4,506.7l.2-.2.7-.7,1.1-1.4c.5-.6.9-1.3,1.5-2.1l1.6-2.6,1.7-3c.6-1,1.1-2.2,1.7-3.3s1.1-2.3,1.7-3.5l1.5-3.5c.6-1.2,1-2.4,1.5-3.5l2.4-6.3a16.1,16.1,0,0,0,.9-2.6c.3-.7.5-1.4.7-1.9l.6-1.7h.1a3.2,3.2,0,0,1,4.1-2,3.3,3.3,0,0,1,2,4l-.5,1.8-.7,2.1-.8,2.6c-.7,1.9-1.4,4.2-2.3,6.6s-.8,2.4-1.3,3.7l-1.5,3.7c-.6,1.3-1.1,2.6-1.6,3.8s-1.1,2.5-1.7,3.6l-1.8,3.4a27.5,27.5,0,0,1-1.7,2.9,12,12,0,0,1-1.6,2.5,18.9,18.9,0,0,1-1.4,1.9,8.1,8.1,0,0,1-1.1,1.3l-.5.6a4.2,4.2,0,0,1-5.8-.1,4.1,4.1,0,0,1,0-5.8h.3Z"/><path class="bj" d="M819.3,503.4l.2-.3a8.1,8.1,0,0,0,.8-1.2l1.2-1.8,1.5-2.6c1-1.8,2.2-4.1,3.4-6.5l1.8-3.9c.5-1.3,1.1-2.6,1.7-4s1.1-2.7,1.6-4.1.9-2.7,1.4-4l1.2-3.7c.4-1.2.7-2.4,1-3.5s1.1-3.9,1.4-5.1l.6-2h0a2.7,2.7,0,0,1,3.3-1.9,2.8,2.8,0,0,1,2,3.2s-.1.7-.4,2-.6,3.2-1.2,5.4-.5,2.3-.8,3.6-.7,2.6-1.1,4l-1.2,4.2c-.5,1.5-1,2.9-1.4,4.4l-1.6,4.3c-.5,1.4-1,2.8-1.6,4.1s-2.2,5.2-3.3,7.3l-1.4,2.8-1.3,2.2-.8,1.4a1.1,1.1,0,0,1-.4.5,4.1,4.1,0,0,1-5.6,1.3,4.2,4.2,0,0,1-1.2-5.7c0-.1.1-.1.1-.2Z"/><path class="bj" d="M810.7,499.8l.3-.5.7-1.1,2.5-4.6c1-1.9,2.1-4.2,3.2-6.7s1.1-2.5,1.6-3.8,1.1-2.7,1.6-4.1.9-2.8,1.4-4.1l1.2-4c.4-1.3.6-2.6.9-3.8s.6-2.4.8-3.5.4-2,.5-2.9.3-1.6.4-2.3l.3-1.9v-.2a3.1,3.1,0,0,1,3.5-2.6,3.2,3.2,0,0,1,2.6,3.4s-.1.8-.2,2.1-.2,1.5-.3,2.4-.3,2-.5,3.2a27,27,0,0,1-.6,3.6c-.3,1.3-.5,2.7-.9,4.1a33.9,33.9,0,0,1-1.1,4.3l-1.2,4.5-1.5,4.3q-.7,2.3-1.5,4.2c-1.1,2.7-2.2,5.2-3.2,7.3a46,46,0,0,1-2.5,5,9.4,9.4,0,0,1-.8,1.5l-.3.5a4.2,4.2,0,0,1-5.6,1.5,4.1,4.1,0,0,1-1.4-5.6v-.2Z"/><path class="bj" d="M795.9,509.8l1.1-2,2.7-5.4c1.1-2.2,2.3-4.9,3.6-7.8s2.5-6,3.7-9.1l1.7-4.8c.6-1.5,1.1-3.1,1.6-4.5s.9-3,1.3-4.4.9-2.7,1.2-3.9.6-2.3.9-3.3.5-1.8.6-2.6l.6-2.2h0a3,3,0,0,1,3.6-2.2,3.1,3.1,0,0,1,2.3,3.5l-.5,2.4c-.2.7-.3,1.6-.6,2.7s-.5,2.2-.8,3.4-.6,2.7-1,4.1-.8,3-1.2,4.5-.9,3.2-1.5,4.8-1,3.3-1.6,4.9c-1.1,3.3-2.3,6.6-3.4,9.6s-2.4,5.9-3.4,8.3-2,4.3-2.6,5.7l-1.1,2.2a4,4,0,1,1-7.3-3.5c0-.1,0-.1.1-.2Z"/><path class="bj" d="M793,525.7v-.5c-.1-.4-.2-.8-.4-1.4s-.6-2.9-.9-5-.3-2.1-.5-3.3l-.3-3.7c-.1-1.3-.1-2.6-.1-4s.1-2.8.1-4.2a14.9,14.9,0,0,0,.2-2.1l.3-2.1c.1-.7.3-1.3.4-2a4.4,4.4,0,0,0,.2-1l.3-1a15.4,15.4,0,0,0,.5-1.7l.6-1.8a20.9,20.9,0,0,1,1.1-3c.7-1.9,1.3-3.5,1.8-4.6l.7-1.2.2-.5a2.9,2.9,0,0,1,4-1.3,2.9,2.9,0,0,1,1.5,3.5v.6a5.3,5.3,0,0,0-.3,1.1c-.3,1-.7,2.5-1.1,4.3s-.3,1.9-.5,2.9a10,10,0,0,0-.2,1.6,9.9,9.9,0,0,0-.2,1.7,3.1,3.1,0,0,0-.1.9c0,.2-.1.5-.1.8s-.1,1.1-.1,1.6v3.5l.3,3.5c.1,1.1.3,2.3.5,3.4s.4,2.1.7,3.1.5,1.9.7,2.8,1,3.1,1.3,4.1.3.8.4,1a1.1,1.1,0,0,0,.2.4h0a5.8,5.8,0,0,1-10.7,4.3A1.9,1.9,0,0,0,793,525.7Z"/><path class="bk" d="M660.9,492.8a15.7,15.7,0,0,0-21.5,5.7v.2l-1.5,2.5c-.9,1.7-2.4,4.2-4.2,7.3-3.8,6.2-9.2,15.1-16,25.5s-14.8,22.4-24,34.5c-4.5,6.1-9.4,12.1-14.4,17.8-2.5,2.8-5.1,5.5-7.7,8s-4.2,3.9-6.2,5.5a53.4,53.4,0,0,1-2.8-4.9,150.6,150.6,0,0,1-7.2-17.2c-2.2-6-4-12-5.6-17.6s-3.6-13.5-4.8-19c-11.1,5.5-22.5,10.2-34.1,14.7a18.8,18.8,0,0,1-2.3,1.6c-.7.6-5.3,4.4-1.3.8-2.3,2.1-5.1,4-7.6,5.9-4.1,3.2-8.3,6.2-12.4,9.3,1.3,2.9,2.8,6,4.3,9.2,3,6.3,6.4,13,10.5,20.2a175.9,175.9,0,0,0,14.9,22.8,96.2,96.2,0,0,0,11.3,12.6,77.7,77.7,0,0,0,8.3,6.5,48.7,48.7,0,0,0,12.1,5.9,37.6,37.6,0,0,0,8,1.8l2.2.2h7a40.6,40.6,0,0,0,14-4.3,65.5,65.5,0,0,0,9.1-5.8,80,80,0,0,0,6.7-5.8A117.1,117.1,0,0,0,605.9,625c3.1-3.8,5.9-7.6,8.5-11.4,5.2-7.5,9.7-14.9,13.9-22.1,8.4-14.3,15.3-27.9,21-39.6s10.2-21.5,13.3-28.4c1.5-3.5,2.7-6.2,3.6-8l1.2-3A15.6,15.6,0,0,0,660.9,492.8Zm-100,110a6.8,6.8,0,0,1-1.9.8c-.2-.1.2-.5,2-.8h-.1Z"/><path class="bj" d="M540.5,452.6s-35.8-76.6-16.8-95.3c14.8-14.6,83,3.9,83,3.9s18.4,110.4-19,108.4C554.9,467.8,540.5,452.6,540.5,452.6Z"/><path class="bj" d="M579.8,451.7s.1,2.2.2,5.6.5,7.9.9,12.3.8,8.8,1.2,12c.2,1.6.4,2.9.5,3.8s.2,1.4.2,1.4a21.9,21.9,0,0,1-43.3,6.5,22.9,22.9,0,0,1,0-6.4v-.5l.3-1.8c.1-1.1.4-2.6.7-4.5.7-3.7,1.6-8.5,2.6-13.2l3-12.9,1.5-5.8a16.2,16.2,0,0,1,32,3Z"/><path class="bl" d="M621,346.3s.3,28-12.2,31-17.9,23.4-17.9,23.4l-9.3-.6c-6.2-.5-8.7,17.2-3.3,23.2s-12.4,39.9-12.4,39.9-18.2,6.4-27-.3-28-38.7-25-80.4c1.6-21.7,12.3-42.4,28-45.7C584.5,327.8,604.9,347.8,621,346.3Z"/><path class="bm" d="M644.4,830v20.4c.1,6.5.1,14.4.1,23.4,0,4.5,0,9.3.1,14.4s0,10.4.1,15.9c.1,22.3.3,48.2.4,76,.1,13.9.2,28.3.3,42.9v61.6c-.1,1.9-.1,3.8-.1,5.7-.1,7.4-.3,14.8-.4,22.1-.3,14.6-.7,29-1.1,42.9s-.8,27.2-1.1,39.9-.7,24.7-1.1,35.8c-.6,22.1-1.1,40.6-1.5,53.5s-.5,20.3-.5,20.3a19.1,19.1,0,0,1-38.1.8h0s-.1-1.9-.3-5.3-.6-8.5-1-14.9-1-14.2-1.6-23.2-1.4-19-2.3-30-1.8-23-2.9-35.6c-.5-6.3-1-12.7-1.6-19.4s-1.1-13.3-1.7-20.2-1.3-13.8-1.9-20.9-1.4-14.1-2.1-21.3-1.5-14.4-2.3-21.6l-.6-5.3-.6-5.3-.6-5.3-.7-5.4-.7-5.5-.2-1.4v-.9h0v-.3l-.4-2.7c-.6-3.6-1.2-7.2-1.7-10.8-1.2-7.2-2.3-14.4-3.4-21.6-2.3-14.2-4.7-28.3-7-41.9s-4.6-26.8-6.8-39.2-4.3-24.3-6.2-35.2c-1-5.4-2-10.6-2.9-15.6s-1.8-9.6-2.6-14.1c-1.6-8.8-3.1-16.5-4.3-22.8s-2.1-11.3-2.8-14.7-1-5.2-1-5.2a52.1,52.1,0,1,1,103.2-10.3Z"/><path class="bm" d="M570.4,845.5s-2.2,7.1-5.9,19.7c-1.9,6.3-4.1,13.9-6.7,22.7-1.3,4.4-2.7,9-4.1,14s-2.9,10-4.5,15.4l-10.1,34.9-5.5,19c-1.8,6.5-3.7,13.2-5.6,19.9l-11.8,41.7-6,21.4c-1.1,3.6-2.1,7.2-3.1,10.8l-1.5,5.4v.3h-.1v.7l-.4,1.4-.7,2.7c-1.9,7.4-3.5,14.1-5.3,21.1s-3.4,14.2-5,21.4l-4.8,21.2q-2.2,10.5-4.5,20.7c-1.5,6.9-3,13.6-4.3,20.2s-2.8,13-4.1,19.3c-2.6,12.5-5,24.4-7.3,35.4s-4.2,21-6,29.9l-4.6,23.2c-1.2,6.4-2.2,11.4-2.8,14.8s-1,5.3-1,5.3h0a19,19,0,0,1-22.3,15.2,19.2,19.2,0,0,1-15.4-20.6s.7-7.4,2-20.5,3-31.6,5.1-54c1.1-11.2,2.2-23.3,3.4-36.1s2.6-26.4,3.9-40.4,2.9-28.5,4.4-43.3c.7-7.4,1.6-14.9,2.4-22.4s1.8-15.6,2.8-22.9l.8-5.8.7-5.5c.4-3.7.9-7.5,1.3-11.2,1-7.4,1.9-14.7,2.8-22,1.8-14.7,3.6-29.1,5.3-43,.8-7,1.7-13.8,2.5-20.6s1.6-13.2,2.3-19.6l4.2-36.1c.7-5.6,1.3-10.9,1.9-16s1.1-9.9,1.6-14.5c1.1-9,1.9-17,2.7-23.5l2.2-20.5A51.9,51.9,0,1,1,572.3,836a44.9,44.9,0,0,1-1.8,9Z"/><path class="bm" d="M471.9,772.7s-2.3,33.4-3.2,45.9c-2.1,27.7,47.8,54.1,88.2,57.7h0c40.3,3.7,85.5-8.3,88-35.9l-2.2-68Z"/><path class="bl" d="M601.7,1304.9c-11.1,40.3,0,39.9,0,39.9H719.5s4.8-17.6-21.6-20c-17-1.5-56.6-20-56.6-20Z"/><path class="bl" d="M416.7,1303.8c-11.6,31-4.1,39.9-4.1,39.9l84.3.2s4.9-19.4-21.6-20c-4.7-.1-22.3-20-22.3-20Z"/><path class="az" d="M465.3,616.8c3.9,72.3,12.5,79.6-2.4,200.7,0,0,56.2,9.4,93.4,10.2s83.5-.6,83.5-.6,8.4-117.2,15.3-209.3c3.4-45.5,42.5-118.9-98.6-132.8C457.9,475.2,462.6,567.6,465.3,616.8Z"/><path class="az" d="M814.5,522.3c-9.5-5.8-18.3,0-23.4,8.2-6.4,10.3-39.9,50.5-48,59.5-23.5,26-27.2,38.6-30,37-5.5-3.2-8.8-9.1-12.7-14s-57.5-101.1-82.3-103-43,22-35.9,45.1c3,9.5,61.6,98.8,102.9,126.4,27,18,36,6.8,53-5.5,13-9.5,22.5-23.7,31.1-37s16.8-28,24.5-42.4,14.1-27.4,20.7-41.3c5-10.4,13.5-24.7.1-33Zm-103.9,113c-.9.4,1.9-1,1.6-.9l-1.6.9C710.3,635.5,711,635.2,710.6,635.3Z"/><path class="bj" d="M642.7,497.6c-.8-10.4,12.7-40.3,16.7-43.3s26-23,26-23,8.6,3,1,11c-5,5.2-16,18-16,21s3,23,7,28l4,5S668.7,510,662.7,511,643.2,504,642.7,497.6Z"/><rect class="az" x="1239.5" y="733.5" width="415.2" height="611.45" rx="11.2"/><rect class="k" x="1279.8" y="804.8" width="334.6" height="105.61"/><rect class="k" x="1279.8" y="946.4" width="64.7" height="64.7"/><rect class="k" x="1369.7" y="946.4" width="64.7" height="64.7"/><rect class="k" x="1459.7" y="946.4" width="64.7" height="64.7"/><rect class="bn" x="1549.7" y="946.4" width="64.7" height="64.7"/><rect class="k" x="1279.8" y="1036.8" width="64.7" height="64.7"/><rect class="k" x="1369.7" y="1036.8" width="64.7" height="64.7"/><rect class="k" x="1459.7" y="1036.8" width="64.7" height="64.7"/><rect class="k" x="1549.7" y="1036.8" width="64.7" height="64.7"/><rect class="k" x="1279.8" y="1127.2" width="64.7" height="64.7"/><rect class="k" x="1369.7" y="1127.2" width="64.7" height="64.7"/><rect class="k" x="1459.7" y="1127.2" width="64.7" height="64.7"/><rect class="k" x="1549.7" y="1127.2" width="64.7" height="64.7"/><rect class="k" x="1279.8" y="1213.7" width="64.7" height="64.7"/><rect class="k" x="1369.7" y="1213.7" width="64.7" height="64.7"/><rect class="k" x="1459.7" y="1213.7" width="64.7" height="64.7"/><rect class="k" x="1549.7" y="1213.7" width="64.7" height="64.7"/><path class="bo" d="M1582,1087.8a4.2,4.2,0,0,1-4.2-4.2v-28.9a4.2,4.2,0,1,1,8.4,0v28.9A4.2,4.2,0,0,1,1582,1087.8Z"/><path class="bo" d="M1596.4,1073.4h-28.8a4.3,4.3,0,0,1,0-8.5h28.8a4.3,4.3,0,1,1,0,8.5Z"/><path class="bo" d="M1596.4,1163.8h-28.8a4.2,4.2,0,1,1,0-8.4h28.8a4.2,4.2,0,1,1,0,8.4Z"/><path class="bo" d="M1596.4,1243.1h-28.8a4.3,4.3,0,0,1,0-8.5h28.8a4.3,4.3,0,1,1,0,8.5Z"/><path class="bo" d="M1596.4,1257.5h-28.8a4.2,4.2,0,1,1,0-8.4h28.8a4.2,4.2,0,1,1,0,8.4Z"/><g class="bp"><path class="bm" d="M1492.1,859.7c-.7,0-.7,0-3.5,3a1.6,1.6,0,0,0-.3.9v26.8a1.9,1.9,0,0,0,.2.7c.3.3.8,1,2.7,3a1.4,1.4,0,0,0,.9.3,1.1,1.1,0,0,0,.8-.3,34.5,34.5,0,0,0,2.7-3,1.9,1.9,0,0,0,.2-.7V863.6a1.6,1.6,0,0,0-.3-.9C1492.7,859.7,1492.7,859.7,1492.1,859.7Z"/><path class="bm" d="M1492.9,822.6a.9.9,0,0,0-.8-.4,1,1,0,0,0-.9.4c-1.9,1.9-2.4,2.6-2.7,2.9a1.9,1.9,0,0,0-.2.7V853a1.4,1.4,0,0,0,.2.7,24.5,24.5,0,0,0,2.7,3,1.2,1.2,0,0,0,.9.3,1.1,1.1,0,0,0,.8-.3,22.9,22.9,0,0,0,2.7-3,1.4,1.4,0,0,0,.2-.7V826.2a1.9,1.9,0,0,0-.2-.7A27.4,27.4,0,0,0,1492.9,822.6Z"/><path class="bm" d="M1534.9,827.5l-.4-.3.6-.5a1.6,1.6,0,0,0,.3-.9,1.1,1.1,0,0,0-.3-.8,21.4,21.4,0,0,0-3-2.7.8.8,0,0,0-.7-.2h-21.8a.7.7,0,0,0-.6.2,13.3,13.3,0,0,0-3,2.7,1.1,1.1,0,0,0,0,1.7c.2.2.4.3.5.5l-.5.3a17.3,17.3,0,0,0-2.7,3,1.4,1.4,0,0,0-.2.6v21.8a1.4,1.4,0,0,0,.2.7,34.5,34.5,0,0,0,2.7,3,1.2,1.2,0,0,0,.9.3,1.1,1.1,0,0,0,.8-.3,34.5,34.5,0,0,0,2.7-3,1.4,1.4,0,0,0,.2-.7V831.1a1.4,1.4,0,0,0-.2-.6l-.7-1h21.6l-.8,1a1.3,1.3,0,0,0-.1.6v21.8a1.5,1.5,0,0,0,.1.7c.3.3.8,1,2.7,3a1.6,1.6,0,0,0,.9.3,1.1,1.1,0,0,0,.8-.3,21.4,21.4,0,0,0,2.7-3,.8.8,0,0,0,.2-.7V831.1a.7.7,0,0,0-.2-.6A13.3,13.3,0,0,0,1534.9,827.5Z"/><path class="bm" d="M1534.9,859.9a1.1,1.1,0,0,0-.8-.3,1.6,1.6,0,0,0-.9.3,24.5,24.5,0,0,0-2.7,3,1.5,1.5,0,0,0-.1.7v21.7a1.5,1.5,0,0,0,.1.7l.8.9h-21.7a4.1,4.1,0,0,0,.8-1,1.4,1.4,0,0,0,.2-.7V863.6a1.4,1.4,0,0,0-.2-.7,22.9,22.9,0,0,0-2.7-3,1.1,1.1,0,0,0-.8-.3,1.2,1.2,0,0,0-.9.3,17.3,17.3,0,0,0-2.7,3,1.4,1.4,0,0,0-.2.7v21.7a1.4,1.4,0,0,0,.2.7,17.3,17.3,0,0,0,2.7,3,.9.9,0,0,0,.7.3l-.6.5a1.4,1.4,0,0,0,0,1.7,17.3,17.3,0,0,0,3,2.7l.7.2h21.8l.6-.2a17.3,17.3,0,0,0,3-2.7,1.1,1.1,0,0,0,.3-.8,1.2,1.2,0,0,0-.3-.9l-.6-.6.3-.2a13.3,13.3,0,0,0,2.7-3,.8.8,0,0,0,.2-.7V863.6a.8.8,0,0,0-.2-.7A13.3,13.3,0,0,0,1534.9,859.9Z"/><path class="bm" d="M1583.8,830.5a24.5,24.5,0,0,0-2.7-3l-.5-.3.6-.5a1.8,1.8,0,0,0,.4-.9,1.2,1.2,0,0,0-.4-.8,13.3,13.3,0,0,0-3-2.7.7.7,0,0,0-.6-.2h-21.8a.8.8,0,0,0-.7.2,21.4,21.4,0,0,0-3,2.7,1.4,1.4,0,0,0,0,1.7l.6.5c-.2.1-.4.1-.6.3a14.3,14.3,0,0,0-2.6,3,.7.7,0,0,0-.2.6v21.8a.8.8,0,0,0,.2.7,24.4,24.4,0,0,0,2.6,3l.9.3a1.1,1.1,0,0,0,.8-.3,21.4,21.4,0,0,0,2.7-3,.8.8,0,0,0,.2-.7V831.1a.7.7,0,0,0-.2-.6l-.7-1h21.6l-.7,1a1.4,1.4,0,0,0-.2.6v21.8a1.4,1.4,0,0,0,.2.7,34.5,34.5,0,0,0,2.7,3,1.1,1.1,0,0,0,.8.3,1.6,1.6,0,0,0,.9-.3c1.9-2,2.4-2.7,2.7-3a1.4,1.4,0,0,0,.2-.7V831.1A1.4,1.4,0,0,0,1583.8,830.5Z"/><path class="bm" d="M1581.1,859.9a1.2,1.2,0,0,0-.9-.3,1.1,1.1,0,0,0-.8.3,17.3,17.3,0,0,0-2.7,3,1.4,1.4,0,0,0-.2.7v21.7a1.4,1.4,0,0,0,.2.7,3.6,3.6,0,0,0,.7.9h-21.5a.1.1,0,0,0-.1.1l.7-1a.8.8,0,0,0,.2-.7V863.6a.8.8,0,0,0-.2-.7,16.4,16.4,0,0,0-2.7-3,1.1,1.1,0,0,0-.8-.3l-.9.3a14.3,14.3,0,0,0-2.6,3,.8.8,0,0,0-.2.7v21.7a.8.8,0,0,0,.2.7,14.3,14.3,0,0,0,2.6,3,1.1,1.1,0,0,0,.7.3l-.5.5a1.2,1.2,0,0,0,0,1.7,17.3,17.3,0,0,0,3,2.7l.6.2h21.8l.7-.2a27.4,27.4,0,0,0,2.9-2.7.9.9,0,0,0,.4-.8,1,1,0,0,0-.4-.9l-.6-.6a.5.5,0,0,0,.4-.2,24.5,24.5,0,0,0,2.7-3,1.4,1.4,0,0,0,.2-.7V863.6a1.4,1.4,0,0,0-.2-.7A24.5,24.5,0,0,0,1581.1,859.9Z"/></g><path class="aw" d="M2268,660c-7.1,103.3-143,185.7-309.7,185.7S1655.7,763.3,1648.7,660Z"/></g></svg>